<?xml version="1.0" encoding="UTF-8"?>
<svg id="b" data-name="Layer 2" xmlns="http://www.w3.org/2000/svg" viewBox="0 0 229.18 319.86">
  <defs>
    <style>
      .d {
        fill: #fff;
      }

      .e {
        fill: #200080;
      }

      .f {
        fill: #002040;
      }

      .g {
        fill: none;
        opacity: .5;
      }

      .h {
        fill: #ff8000;
      }
    </style>
  </defs>
  <g id="c" data-name="Layer 1">
    <g>
      <g>
        <path class="f" d="m73.16,56.29c-1.06,0-1.75-.33-2.32-1.1-3.35-4.56-.3-19.97,2.44-28.78,1.03-1.86,11.11-19.13,33.21-23.1.04,0,.08-.01.12-.02,2.57-.46,5.25-.73,7.98-.79,2.71.06,5.39.33,7.96.79.04,0,.09.01.13.02,22.08,3.98,32.16,21.22,33.19,23.1,2.74,8.81,5.79,24.22,2.44,28.78-.57.77-1.26,1.1-2.32,1.1-1.35,0-3.87-.58-8.18-3.37-19.94-12.91-29.25-15.39-33.02-15.71-.07,0-.14,0-.22,0s-.14,0-.21,0c-3.78.33-13.09,2.8-33.03,15.71-4.3,2.79-6.82,3.37-8.17,3.37h0Z"/>
        <path class="d" d="m114.59,5c2.58.06,5.11.32,7.53.75.06.01.12.02.18.03,20.5,3.71,29.85,19.05,31.27,21.59.46,1.54,2.03,6.97,2.97,12.8,1.53,9.42.31,13.02-.27,13.6-.04,0-.12.02-.26.02-.67,0-2.68-.29-6.82-2.97-19.37-12.54-29.27-15.68-34.17-16.1-.14-.01-.29-.02-.43-.02s-.29,0-.43.02c-4.9.42-14.8,3.56-34.18,16.1-4.14,2.68-6.14,2.97-6.81,2.97-.14,0-.22-.01-.26-.02-.58-.58-1.8-4.18-.27-13.6.95-5.82,2.51-11.25,2.97-12.79,1.39-2.46,10.85-17.9,31.27-21.6.06,0,.12-.02.19-.03,2.42-.43,4.95-.69,7.53-.75m.05-5h-.1c-2.95.07-5.74.36-8.36.83h-.02c-24.92,4.43-35.19,24.61-35.19,24.61,0,0-10.51,33.35,2.2,33.35,2.33,0,5.44-1.12,9.53-3.77,19.94-12.91,28.76-15.05,31.89-15.32,3.12.27,11.94,2.41,31.88,15.32,4.1,2.65,7.21,3.77,9.54,3.77,12.71,0,2.19-33.35,2.19-33.35,0,0-10.27-20.18-35.18-24.61h-.02c-2.62-.47-5.41-.76-8.36-.83h0Z"/>
      </g>
      <g>
        <path class="e" d="m33.39,312.48c3.45-14.4,1.96-29.07,1.88-29.8-.12-1.16-1.03-2.08-2.19-2.22l-28.31-3.37c15.86-19.95,94.68-121.71,153-244.82,1,3.06,2,5.99,2.98,8.87,5.54,16.29,10.33,30.36,10.33,51.71,0,10.51-17.75,51.97-46.43,100.63-18.32,31.08-53.7,86.29-91.26,119Z"/>
        <path class="d" d="m157.36,38.94c.34,1.01.68,2.02,1.02,3.01,5.47,16.08,10.2,29.97,10.2,50.9,0,10.22-18.52,52.58-46.08,99.36-17.35,29.43-50.06,80.61-85.29,113.47,1.7-12.09.63-22.64.56-23.26-.25-2.32-2.06-4.16-4.38-4.44l-23.87-2.84c8.78-11.17,27.01-34.97,49.13-67.28,27.22-39.75,65.8-100.51,98.72-168.93m.86-13.5C92.64,166.23,0,279.05,0,279.05l32.79,3.9s2.22,20.87-4.36,36.92c68.79-54.57,145.15-203.39,145.15-227.01,0-27.97-8.03-43.57-15.36-67.41h0Z"/>
      </g>
      <g>
        <path class="h" d="m195.79,312.47c-25.07-21.93-53.9-58.32-81.98-103.64-3.62-5.85-7.19-11.77-10.6-17.6,0,0-1.65-2.83-2.12-3.63-4.39-7.59-8.65-15.25-12.67-22.77-20.84-38.92-30.33-64.59-30.33-71.97,0-21.34,4.79-35.4,10.33-51.69.98-2.88,1.98-5.82,2.98-8.88,16.35,34.51,35.64,70.21,57.39,106.2,4.76,7.88,9.7,15.87,14.69,23.74l2.75,4.34c4.76,7.48,9.63,14.95,14.88,22.86,30.05,45.25,55.07,77.38,63.28,87.68l-28.31,3.37c-1.16.14-2.07,1.06-2.19,2.22-.08.73-1.56,15.39,1.88,29.79Z"/>
        <path class="d" d="m71.83,38.94c15.8,32.84,34.22,66.71,54.84,100.83,4.78,7.91,9.73,15.91,14.71,23.78.52.82,1.03,1.63,1.55,2.44l1.22,1.92c4.75,7.46,9.63,14.95,14.9,22.89,27.24,41.03,50.38,71.3,60.63,84.34l-23.87,2.84c-2.32.28-4.14,2.12-4.38,4.44-.07.63-1.13,11.15.56,23.22-23.57-22.09-50.1-56.27-76.05-98.13-3.61-5.82-7.16-11.73-10.56-17.54l-.79-1.36c-.44-.76-.88-1.52-1.32-2.27-4.38-7.57-8.63-15.21-12.63-22.7-19.71-36.82-30.03-63.48-30.03-70.79,0-20.92,4.73-34.81,10.2-50.89.34-1,.68-2.01,1.03-3.03m-.86-13.5c-7.34,23.85-15.37,39.44-15.37,67.41,0,9.34,11.93,38.24,30.62,73.15,3.95,7.39,8.2,15.04,12.71,22.84.7,1.21,1.41,2.42,2.12,3.64,3.41,5.84,6.96,11.74,10.63,17.66,26.24,42.34,58.41,85.39,89.07,109.72-6.57-16.05-4.36-36.92-4.36-36.92l32.79-3.9s-28.97-35.28-65.97-91.01c-4.83-7.27-9.8-14.88-14.85-22.81-.91-1.44-1.83-2.88-2.75-4.34-4.83-7.63-9.73-15.54-14.66-23.7-20.34-33.65-41.26-71.56-59.98-111.74h0Z"/>
      </g>
      <g class="g">
        <path class="d" d="m145.61,160.88c-15.62,10.97-32.59,20.83-46.68,27.96-4.51-7.8-8.76-15.45-12.71-22.84,17.26-10.21,32.5-20.28,44.73-28.82,4.93,8.16,9.83,16.07,14.66,23.7Z"/>
      </g>
      <g class="g">
        <path class="d" d="m163.21,188.03c-22.66,13.18-43.13,22.17-48.85,22.17-.92,0-1.81-.02-2.68-.06-3.67-5.92-7.22-11.82-10.63-17.66,17.2-8.92,33.21-18.35,47.31-27.26,5.05,7.93,10.02,15.54,14.85,22.81Z"/>
      </g>
    </g>
  </g>
</svg>